<svg width="56" height="54" viewBox="0 0 56 54" fill="none" xmlns="http://www.w3.org/2000/svg">
<g clip-path="url(#clip0_125_273)">
<path d="M0 27.6286C0.356562 27.0239 0.890312 26.8505 1.56625 26.8694C2.84156 26.905 4.11797 26.8794 5.39437 26.8794C5.59016 26.8794 5.78594 26.8794 5.98172 26.8794C5.90406 25.8968 5.80344 24.981 5.76297 24.0629C5.6 20.3794 6.29672 16.8615 7.79625 13.5058C8.09375 12.8412 8.68328 12.5833 9.26406 12.8367C9.86344 13.0979 10.0931 13.727 9.78469 14.4173C8.51922 17.256 7.88047 20.2304 7.93078 23.3426C7.94719 24.3919 8.11234 25.4378 8.18781 26.4871C8.21078 26.8016 8.34094 26.9083 8.63406 26.8805C10.1248 26.7394 10.5809 27.2651 10.4792 28.839C10.4661 29.0379 10.477 29.238 10.477 29.4714H12.9062C12.9062 29.2547 12.9062 29.0568 12.9062 28.859C12.9062 25.5123 12.9062 22.1667 12.9062 18.8199C12.9062 17.7896 13.2738 17.415 14.2855 17.4139C16.8558 17.4117 19.4261 17.4139 21.9964 17.4139C22.1933 17.4139 22.3891 17.4139 22.6472 17.4139C22.6472 17.1649 22.6472 16.9682 22.6472 16.7703C22.6472 14.9953 22.6428 13.2202 22.6494 11.4462C22.6527 10.5726 23.0639 10.1313 23.9159 10.1336C27.0692 10.1391 30.2225 10.1558 33.3758 10.1802C34.2038 10.1869 34.5745 10.6026 34.5756 11.4829C34.5789 15.1064 34.5767 18.7299 34.5778 22.3534C34.5778 22.5735 34.5778 22.7924 34.5778 23.0803C34.8152 23.0936 35.0241 23.1148 35.233 23.1148C37.7672 23.117 40.3003 23.1148 42.8345 23.117C43.9906 23.117 44.322 23.4593 44.3231 24.6442C44.3231 28.3421 44.3231 32.039 44.3231 35.737V36.4339C44.4664 36.3083 44.5648 36.2438 44.6337 36.156C48.2705 31.4932 49.6453 26.1925 48.9552 20.316C48.8972 19.8214 48.7911 19.3334 48.7069 18.8422C48.5855 18.1308 48.9158 17.5528 49.5163 17.425C50.1714 17.2861 50.7194 17.664 50.855 18.3987C52.185 25.6312 50.6658 32.1468 46.0644 37.8799C45.8227 38.1811 45.605 38.5324 45.2966 38.7402C44.0114 39.6083 44.3286 40.8888 44.3505 42.1681C46.0775 41.7646 47.7619 41.3856 49.4386 40.9755C50.6089 40.6887 51.7672 40.5386 52.9255 41.0121C54.4917 41.6524 55.4695 42.8094 55.8862 44.4645C55.9169 44.5856 55.9639 44.7023 56.0044 44.8212V46.2629C55.9759 46.3084 55.9322 46.3507 55.9212 46.3996C55.4717 48.4881 54.2008 49.7541 52.1719 50.2754C47.9391 51.3646 43.7095 52.4661 39.4756 53.5543C36.6723 54.2746 33.9183 54.1256 31.2178 53.0508C26.3736 51.1223 21.5173 49.225 16.6906 47.2532C15.3136 46.6908 13.9519 46.3095 12.46 46.4385C11.8169 46.494 11.1639 46.4474 10.4792 46.4474C10.4792 46.7341 10.4792 46.9353 10.4792 47.1365C10.4727 48.2358 10.1172 48.5959 9.03109 48.5959C6.49687 48.5959 3.96375 48.5792 1.42953 48.607C0.771094 48.6137 0.304062 48.4036 0.00328125 47.8156V27.6286H0ZM10.4989 44.2322C11.8377 44.2322 13.1108 44.211 14.3828 44.2433C14.8083 44.2544 15.2545 44.3366 15.6505 44.4934C21.0919 46.6408 26.5267 48.806 31.9627 50.9712C34.0364 51.797 36.1758 52.0638 38.3403 51.5303C42.8477 50.4176 47.3397 49.2406 51.8317 48.0646C53.2853 47.6845 54.0761 46.3284 53.7337 44.9313C53.375 43.4652 52.0527 42.6649 50.5389 43.0151C47.203 43.7842 43.8605 44.5256 40.5377 45.3448C37.5473 46.0828 34.6369 46.0217 31.7483 44.8657C28.3817 43.5175 24.99 42.2337 21.6103 40.9188C20.7725 40.5931 20.4466 40.034 20.6916 39.3671C20.9311 38.7147 21.5578 38.5224 22.3956 38.8436C22.4295 38.8569 22.4634 38.8714 22.4973 38.8847C24.7898 39.7784 27.0813 40.6731 29.3748 41.5634C30.1831 41.8769 30.9903 41.8569 31.7494 41.4267C32.7775 40.8443 33.3047 39.9318 33.25 38.7358C33.1964 37.5531 32.5806 36.7329 31.5044 36.2794C27.9934 34.8011 24.4814 33.3239 20.965 31.8556C20.7539 31.7678 20.5078 31.7322 20.2781 31.7311C17.1806 31.7233 14.082 31.7256 10.9845 31.7267C10.827 31.7267 10.6695 31.7467 10.5 31.7589V44.2322H10.4989ZM24.8609 12.3977C24.85 12.5099 24.8358 12.5822 24.8358 12.6555C24.8347 18.6632 24.8369 24.6709 24.827 30.6785C24.827 30.9953 24.9441 31.1298 25.2153 31.2409C26.6995 31.85 28.1772 32.4747 29.657 33.0949C30.543 33.4662 31.4289 33.8363 32.3542 34.2242V12.3977H24.862H24.8609ZM42.0897 42.6772V25.3711H34.6128C34.5986 25.4911 34.5789 25.579 34.5789 25.6668C34.5767 29.0135 34.5734 32.3602 34.5855 35.7058C34.5855 35.9103 34.6817 36.1315 34.7834 36.3172C35.6278 37.8466 35.7109 39.4282 34.9639 40.991C34.6544 41.639 34.5581 42.2626 34.5658 42.9528C34.5702 43.3229 34.6795 43.4463 35.0459 43.5108C37.4795 43.932 39.7731 43.2418 42.0897 42.6761V42.6772ZM8.26109 29.1435H2.22688V46.3373H8.26109V29.1435ZM22.6264 19.6724H15.1375V29.5059C16.4752 29.5059 17.7669 29.5281 19.0586 29.4992C20.2475 29.4725 21.4233 29.4659 22.505 30.0761C22.5291 30.0894 22.5728 30.0672 22.6264 30.0583V19.6724Z" fill="#333333"/>
<path d="M28.4266 0C31.2878 0.0322335 33.8767 0.472387 36.377 1.41939C37.1831 1.72505 37.5036 2.25746 37.2816 2.92102C37.0661 3.56458 36.4383 3.78355 35.6475 3.50901C28.793 1.13151 22.3836 2.02626 16.4325 6.21773C15.8802 6.60676 15.3749 7.06358 14.8542 7.49707C14.2395 8.00836 13.5909 8.01392 13.1611 7.50374C12.7324 6.99467 12.8352 6.33777 13.4313 5.81092C17.7855 1.96402 22.8616 0.057798 28.4266 0Z" fill="#333333"/>
<path d="M49.641 4.6005C49.548 4.77501 49.4474 5.08178 49.2549 5.30853C46.3236 8.74973 43.3836 12.182 40.4381 15.6099C39.9427 16.1868 39.2875 16.2412 38.8019 15.79C38.3414 15.362 38.3228 14.7096 38.7942 14.1572C41.7419 10.706 44.695 7.26032 47.6481 3.81467C47.9894 3.41676 48.4072 3.24447 48.918 3.44343C49.3774 3.62238 49.5852 3.98918 49.641 4.6005Z" fill="#333333"/>
<path d="M46.9 16.6414C45.3906 16.6525 44.1536 15.4109 44.1437 13.876C44.1339 12.331 45.3414 11.0894 46.8628 11.0828C48.3842 11.0761 49.6169 12.3021 49.6322 13.8371C49.6464 15.3509 48.4006 16.6314 46.9011 16.6414H46.9ZM46.7655 14.504C46.8453 14.504 46.9262 14.5017 47.0061 14.5006C47.1494 14.2839 47.4217 14.0505 47.3987 13.8537C47.3747 13.6525 47.0848 13.3802 46.8672 13.3302C46.5423 13.2546 46.2995 13.5314 46.3586 13.8604C46.399 14.0916 46.6233 14.2894 46.7644 14.5028L46.7655 14.504Z" fill="#333333"/>
<path d="M43.5422 5.82203C43.54 7.36256 42.3194 8.59522 40.798 8.59188C39.2831 8.58855 38.0603 7.34367 38.0636 5.80646C38.0669 4.2826 39.317 3.01771 40.8133 3.02438C42.3238 3.03105 43.5444 4.2826 43.5422 5.82091V5.82203ZM41.4389 5.94207C41.4389 5.85537 41.4367 5.76978 41.4356 5.68309C41.2234 5.5397 40.9938 5.26072 40.8056 5.28739C40.6011 5.31629 40.4359 5.62974 40.2544 5.81869C40.4392 5.99986 40.6099 6.30219 40.8144 6.32887C41.0036 6.35332 41.2289 6.08212 41.4389 5.94207Z" fill="#333333"/>
<path d="M10.0319 10.0546C10.045 9.43664 10.512 8.97759 11.119 8.98426C11.7425 8.99093 12.2183 9.50222 12.1898 10.1324C12.1625 10.7282 11.6462 11.215 11.0698 11.1895C10.4748 11.1628 10.0187 10.6637 10.033 10.0546H10.0319Z" fill="#333333"/>
</g>
<defs>
<clipPath id="clip0_125_273">
<rect width="56" height="54" fill="white"/>
</clipPath>
</defs>
</svg>
